<svg width="162" height="37" viewBox="0 0 162 37" fill="none" xmlns="http://www.w3.org/2000/svg">
<path d="M16.0732 0.415314C12.303 1.09082 9.14687 2.77343 6.37142 5.56142C4.1486 7.79673 2.71175 10.0934 1.8521 12.82C1.2135 14.8342 1.07841 15.694 1.00473 18.0398C0.955603 19.9067 0.980165 20.4839 1.18894 21.7244C1.8521 25.6177 3.49772 28.7619 6.35914 31.6113C8.59424 33.8343 10.8907 35.2713 13.6171 36.131C15.6311 36.7697 16.4908 36.9048 18.8364 36.9785C20.7031 37.0276 21.2803 37.0031 22.5206 36.7943C26.4013 36.131 29.5698 34.473 32.4066 31.6236C34.6294 29.3883 36.0663 27.0916 36.9259 24.365C37.5645 22.3508 37.6996 21.491 37.7733 19.1452C37.8224 17.2783 37.7979 16.7011 37.5891 15.4606C36.9259 11.5673 35.2803 8.4231 32.4189 5.57371C29.7294 2.89626 26.9417 1.36102 23.2575 0.513569C21.6118 0.145111 17.8416 0.0837021 16.0732 0.415314ZM20.7522 7.85814C21.0101 8.12834 21.0469 8.31256 21.0838 9.23371L21.1329 10.3022L21.6241 10.6707C22.4347 11.2848 24.461 13.4587 24.9031 14.2202C26.3399 16.6274 25.9961 18.31 23.5645 20.9506L22.8031 21.7858H21.9557H21.1083V22.7683V23.7509H22.3241C23.6873 23.7509 23.9452 23.6404 25.0505 22.5596C25.6031 22.0314 25.6891 21.9946 28.3417 21.2208C29.8522 20.791 31.154 20.4348 31.2522 20.4348C31.3873 20.4348 31.4242 20.619 31.4242 21.1963L31.4119 21.97L30.7733 22.2648C29.9014 22.6824 29.2014 23.3579 28.5259 24.4632C27.654 25.8879 26.7698 27.0302 26.254 27.3863C25.3206 28.0373 25.2469 28.0373 19.5732 28.0373C13.8258 28.0496 13.4083 28.0127 12.0574 27.3495C10.1416 26.4038 8.6188 24.0334 8.72932 22.142L8.76617 21.4787L11.4557 21.4419C13.3346 21.4173 14.1943 21.4542 14.3048 21.5524C14.403 21.6261 14.4767 21.8718 14.4767 22.0928C14.4767 22.6087 14.9311 23.2719 15.4592 23.5298C15.803 23.7018 16.2083 23.7509 17.3995 23.7509H18.8978V22.7683V21.7858H17.5592C16.8101 21.7858 16.1837 21.7367 16.1469 21.6753C16.1101 21.6138 16.4048 21.0366 16.7978 20.3734C17.7557 18.8136 18.1732 17.7573 18.2592 16.7134C18.382 15.0922 17.8171 12.8937 16.6627 10.4496C16.3188 9.72498 16.0609 9.09861 16.0978 9.06176C16.1469 9.02491 16.7855 9.16002 17.5346 9.35653L18.8978 9.72498V8.93894C18.8978 8.25116 18.9469 8.10377 19.2048 7.84585C19.6224 7.41599 20.3469 7.42827 20.7522 7.85814ZM15.7294 12.7832C16.3311 14.3921 16.6136 15.9765 16.4539 16.8362C16.3066 17.61 15.4346 19.3908 15.1522 19.5014C15.0416 19.5382 13.8872 19.5751 12.5732 19.5751C10.8171 19.5751 10.1785 19.5382 10.0802 19.4154C9.90828 19.2189 14.8083 11.4567 15.0785 11.5059C15.1767 11.5181 15.4592 12.0708 15.7294 12.7832Z" fill="white"/>
<path d="M54.119 9.99525C52.0681 10.3637 50.5207 11.1497 49.1699 12.513C48.0769 13.6184 47.5242 14.4536 47.0576 15.7923C46.6277 16.9836 46.5172 19.3295 46.8242 20.7173C47.0698 21.8227 47.7944 23.3334 48.4821 24.1808C49.612 25.581 51.4418 26.7109 53.333 27.1899C54.6594 27.5215 56.7716 27.5215 58.1594 27.1899C61.4015 26.4161 63.9559 23.8738 64.6559 20.7296C64.9384 19.44 64.8401 17.0328 64.4594 15.8906C63.5506 13.164 61.291 11.0515 58.4418 10.2409C57.4102 9.94613 55.0769 9.81102 54.119 9.99525ZM57.8524 14.2079C59.6453 15.0922 60.6646 17.3398 60.2962 19.612C60.2103 20.091 60.0506 20.7173 59.9155 21.0121C59.6085 21.7122 58.6383 22.7316 57.9506 23.0755C56.2067 23.9598 53.7751 23.6281 52.4734 22.3385C50.7786 20.6314 50.6681 17.0573 52.2523 15.2887C53.3085 14.122 54.1313 13.7904 55.9243 13.8395C56.9804 13.864 57.2506 13.9132 57.8524 14.2079Z" fill="white"/>
<path d="M121.504 9.94618C119.772 10.2287 118.519 10.8428 117.574 11.8622C116.689 12.8201 116.346 13.8395 116.432 15.3134C116.505 16.6398 116.849 17.4136 117.709 18.2242C118.519 18.9979 119.551 19.4769 121.946 20.2384C124.046 20.9016 124.868 21.3683 125.089 22.0561C125.286 22.6702 125.102 23.2966 124.611 23.6528C124.132 23.9844 122.928 24.0949 122.253 23.8738C121.737 23.7142 121.233 23.1124 121.123 22.5474L121.049 22.1544H118.667H116.284L116.333 22.4246C116.37 22.5842 116.432 22.9159 116.468 23.1738C116.775 25.0652 118.618 26.711 121.037 27.2391C122.179 27.497 124.463 27.497 125.433 27.2514C127.275 26.7846 128.651 25.7284 129.339 24.2791C129.707 23.5054 129.732 23.3457 129.732 22.1544C129.732 20.9999 129.695 20.8034 129.4 20.2507C128.958 19.391 127.975 18.5189 126.932 18.0399C126.44 17.8189 125.225 17.3522 124.205 16.996C122.007 16.2345 121.811 16.1363 121.393 15.645C120.472 14.5396 121.639 13.0658 123.198 13.3605C124.033 13.5202 124.512 13.9869 124.807 14.9326C124.868 15.1291 125.089 15.1537 127.226 15.1537H129.584L129.511 14.4659C129.302 12.4885 127.693 10.8182 125.372 10.1673C124.697 9.98303 122.191 9.84793 121.504 9.94618Z" fill="white"/>
<path d="M74.3212 13.6183C73.4001 13.864 72.7738 14.2201 72.1352 14.8342L71.5826 15.3624V14.5149V13.6797H69.372H67.1615V22.5227V31.3657H69.372H71.5826V28.4794V25.5932L72.0861 26.0845C73.9036 27.8408 77.2808 27.9759 79.4545 26.3792C81.2598 25.0528 82.2668 22.6087 82.1072 19.9435C81.9844 17.9784 81.3826 16.48 80.2282 15.2641C78.7545 13.7289 76.3843 13.0657 74.3212 13.6183ZM76.0036 17.5363C76.63 17.8433 77.2808 18.6293 77.4773 19.3049C77.6493 19.9189 77.637 21.098 77.4528 21.7121C77.244 22.3999 76.2247 23.4438 75.5738 23.6158C74.0142 24.0457 72.651 23.4684 71.9142 22.0928C71.6931 21.6998 71.644 21.3928 71.644 20.4962C71.644 19.5505 71.6931 19.2926 71.951 18.789C72.7124 17.3029 74.4563 16.7625 76.0036 17.5363Z" fill="white"/>
<path d="M88.7755 13.6184C87.1912 13.9377 85.7298 14.822 84.8211 16.0379C83.8632 17.2907 83.4825 18.5311 83.4825 20.4471C83.4825 22.6701 84.0474 24.1931 85.3983 25.5318C86.7123 26.8337 88.3948 27.4723 90.5562 27.4846C92.0053 27.4846 92.8158 27.3127 93.9948 26.7477C95.4562 26.0476 96.5737 24.8563 97.1264 23.407L97.372 22.7684H95.0386H92.693L92.3 23.2105C91.8211 23.7755 91.293 23.9966 90.4948 23.9966C89.1684 23.9966 88.1983 23.2351 87.9035 21.9332L87.8176 21.5402H92.7176H97.6176V20.2752C97.6176 18.8136 97.4088 17.8925 96.8439 16.8239C95.493 14.2447 92.1895 12.9306 88.7755 13.6184ZM91.4895 17.0082C92.3614 17.3029 92.8895 17.8679 93.086 18.6785L93.172 19.0838H90.5316H87.8912L87.9772 18.7399C88.1 18.2486 88.4193 17.7328 88.7877 17.4626C89.5 16.9222 90.6544 16.738 91.4895 17.0082Z" fill="white"/>
<path d="M107.429 13.5691C106.484 13.7042 105.477 14.1709 104.814 14.785L104.249 15.3131V14.4902V13.6796H102.038H99.8277V20.4961V27.3125H102.038H104.236L104.273 23.0998C104.31 18.9977 104.322 18.8871 104.593 18.3836C105.01 17.573 105.698 17.1922 106.766 17.1431C107.479 17.1063 107.749 17.1431 108.142 17.3519C108.756 17.6589 109.235 18.2116 109.407 18.8134C109.48 19.0836 109.529 20.9014 109.529 23.284V27.3125H111.752H113.963L113.926 22.4857C113.877 17.9169 113.865 17.6344 113.619 16.9712C112.894 15.0552 111.421 13.8393 109.431 13.5568C108.498 13.4217 108.387 13.4217 107.429 13.5691Z" fill="white"/>
<path d="M136.806 13.6307C133.343 14.3799 131.365 17.131 131.55 20.9261C131.648 22.9526 132.237 24.3405 133.527 25.581C134.89 26.8828 136.462 27.4601 138.636 27.4724C140.883 27.4847 142.59 26.8091 143.904 25.3967C144.543 24.7089 145.39 23.2965 145.39 22.9035C145.39 22.8053 144.678 22.7684 143.069 22.7684H140.736L140.49 23.1246C139.667 24.2791 137.383 24.2791 136.523 23.1246C136.216 22.707 135.934 22.0315 135.934 21.7122C135.934 21.5648 136.793 21.5402 140.772 21.5402H145.611L145.685 21.2577C145.807 20.7787 145.758 19.5383 145.574 18.654C145.022 16.0379 143.13 14.1834 140.453 13.6307C139.311 13.3973 137.874 13.3973 136.806 13.6307ZM139.532 17.0082C140.109 17.1679 140.834 17.782 141.043 18.3101C141.386 19.1207 141.485 19.0838 138.562 19.0838H135.921L136.007 18.8014C136.462 17.3153 137.936 16.5661 139.532 17.0082Z" fill="white"/>
<path d="M151.64 13.6551C148.779 14.4043 147.108 16.9221 147.108 20.4838C147.108 22.0682 147.293 22.9402 147.907 24.1807C149.601 27.681 154.379 28.6267 157.154 26.0352L157.547 25.6668V26.4897V27.3125H159.758H161.968V20.4961V13.6796H159.758H157.547V14.5025V15.3131L157.093 14.8587C155.852 13.6182 153.654 13.127 151.64 13.6551ZM155.779 17.4256C156.393 17.6835 157.007 18.3099 157.302 18.9854C157.535 19.5258 157.572 19.7837 157.523 20.668C157.461 21.8348 157.302 22.2647 156.663 22.8911C155.226 24.3403 152.782 23.9105 151.873 22.0559C151.48 21.2576 151.48 19.6241 151.861 18.8994C152.647 17.4011 154.256 16.7992 155.779 17.4256Z" fill="white"/>
</svg>
