<svg width="144" height="19" viewBox="0 0 144 19" fill="none" xmlns="http://www.w3.org/2000/svg">
<path d="M56.6832 1.0205C56.3787 1.1055 56.0854 1.30234 55.8881 1.55733C55.6625 1.84364 55.6174 2.35363 55.7866 2.65783C55.9445 2.93967 56.17 3.13203 56.5027 3.27071C56.8862 3.43176 57.5178 3.44071 57.8674 3.29308C58.4708 3.03809 58.7358 2.69809 58.7358 2.17469C58.7358 1.78548 58.6399 1.5797 58.3523 1.33812C57.9294 0.989185 57.2527 0.859451 56.6832 1.0205Z" fill="white"/>
<path d="M6.41092 1.25316C6.19664 1.89736 0.935364 18.6957 0.935364 18.7449C0.935364 18.7941 1.42596 18.803 3.72672 18.803H6.51243L6.56318 18.6554C6.59138 18.5794 7.36957 16.092 8.30002 13.135L9.98611 7.75776L12.7718 7.74434L15.5632 7.73092L16.5951 4.4652C17.159 2.66682 17.6271 1.17264 17.6271 1.14132C17.6271 1.10106 16.4767 1.08764 12.0444 1.08764H6.46732L6.41092 1.25316Z" fill="white"/>
<path d="M23.1481 1.09659C23.1481 1.10554 22.3643 3.5839 21.4113 6.61252L19.6857 12.115L16.8944 12.1374L14.1086 12.1598L13.0767 15.4255C12.5128 17.2194 12.0447 18.718 12.0447 18.7449C12.0447 18.7896 13.1951 18.803 17.6218 18.803C22.8887 18.803 23.2045 18.7986 23.2327 18.7225C23.3173 18.4944 28.7365 1.18159 28.7365 1.14132C28.7365 1.10106 28.0316 1.08764 25.9451 1.08764C24.4113 1.08764 23.1538 1.09211 23.1481 1.09659Z" fill="white"/>
<path d="M34.2625 9.94526V18.8074L39.8339 18.7895C44.7512 18.7761 45.4674 18.7672 45.9636 18.7001C48.0501 18.4182 49.4768 17.8859 50.5651 16.9867C51.5069 16.2038 51.9467 15.3404 52.0087 14.1504C52.0877 12.6205 51.4505 11.5244 49.973 10.6476C49.4711 10.3568 48.5181 9.96763 47.8133 9.77526L47.3508 9.64553L47.7569 9.48001C49.2399 8.86265 50.2211 7.93215 50.599 6.77349C50.7738 6.24113 50.8358 5.32852 50.7343 4.81853C50.317 2.7741 48.146 1.43203 44.7794 1.1323C44.4805 1.10546 42.2418 1.08756 39.27 1.08756H34.2625V9.94526ZM44.6328 2.98884C46.3245 3.20804 47.5087 3.86118 47.9599 4.82301C48.129 5.18537 48.1967 5.70878 48.129 6.16955C47.9542 7.38637 47.0294 8.25425 45.4618 8.67029C44.4805 8.92976 44.5144 8.92976 40.5106 8.94765L36.8001 8.96555V5.94588V2.92173H40.4542C43.4542 2.92173 44.1986 2.93515 44.6328 2.98884ZM45.3602 10.8579C47.582 11.1531 48.896 11.8868 49.2907 13.0589C49.4148 13.4168 49.4148 14.1773 49.2907 14.5486C48.8565 15.8862 47.2945 16.7317 44.926 16.9241C44.5877 16.9509 42.7775 16.9688 40.5727 16.9688H36.8001V13.8552V10.746L40.7926 10.7639C44.2381 10.7773 44.8584 10.7908 45.3602 10.8579Z" fill="white"/>
<path d="M64.8831 3.39153V5.69543H63.0222H61.1613V6.56778V7.44013H63.0222H64.8831V10.9385C64.8831 12.8666 64.9113 14.6963 64.9394 15.0094C65.1312 17.0897 66.3831 18.4228 68.5767 18.9015C68.9714 18.9865 69.18 18.9999 70.2402 18.9999C71.6331 19.0043 72.1349 18.9507 73.274 18.6599L73.962 18.4854V17.6175C73.962 17.1389 73.9451 16.7452 73.9225 16.7452C73.8943 16.7452 73.68 16.7944 73.4432 16.857C72.603 17.0673 71.9545 17.1523 70.9169 17.1791C70.0992 17.197 69.868 17.1881 69.5635 17.1254C68.5485 16.9152 67.9169 16.3694 67.5785 15.4165C67.4545 15.0721 67.4488 15.0273 67.4319 11.2516L67.415 7.44013H70.7759H74.1312V6.56778V5.69543H70.7759H67.4206V3.39153V1.08764H66.1519H64.8831V3.39153Z" fill="white"/>
<path d="M77.6265 9.94534V18.803H80.0795H82.5325L82.5438 13.1395L82.5607 7.47592L85.6058 11.1487C88.087 14.1416 88.6734 14.8215 88.7637 14.8126C88.8426 14.8037 89.7731 13.7121 91.9498 11.0816L95.0231 7.35961L95.04 13.0813L95.0513 18.803H97.5043H99.9573V9.94534V1.08764H97.29H94.6227L91.7242 4.79624C90.1283 6.8362 88.8088 8.4959 88.7919 8.48695C88.7806 8.47353 87.4723 6.80936 85.8877 4.7873L83.0118 1.11001L80.3163 1.09659L77.6265 1.08764V9.94534Z" fill="white"/>
<path d="M104.244 9.94528V18.803H112.759H121.274V17.0583V15.3136H115.24H109.207V13.4794V11.6452H114.169H119.131V9.87817V8.11111H114.169H109.207V6.34404V4.57698H115.156H121.105V2.83228V1.08758H112.675H104.244V9.94528Z" fill="white"/>
<path d="M122.937 1.13684C122.96 1.15921 124.629 3.10969 126.648 5.4628C128.661 7.8159 130.313 9.76191 130.313 9.78875C130.313 9.81112 128.593 11.8242 126.495 14.2534C124.392 16.687 122.661 18.7046 122.644 18.7404C122.621 18.7941 123.039 18.803 125.424 18.7986H128.238L130.713 15.8013C132.072 14.155 133.2 12.8084 133.223 12.8129C133.24 12.8129 134.362 14.155 135.715 15.7968L138.174 18.7807L141.067 18.7941C143.632 18.803 143.954 18.7941 143.92 18.7359C143.898 18.6778 137.475 11.1621 136.527 10.0795L136.234 9.74402L139.945 5.42701L143.661 1.11L140.881 1.09658C139.358 1.0921 138.084 1.09658 138.05 1.10552C138.022 1.11447 136.956 2.38944 135.681 3.94178C133.945 6.06226 133.352 6.75119 133.307 6.71093C133.273 6.67961 132.225 5.40464 130.978 3.8702L128.711 1.08763H125.807C123.777 1.08763 122.914 1.10105 122.937 1.13684Z" fill="white"/>
<path d="M55.9722 12.2492V18.803H57.2128H58.4534V12.2492V5.69543H57.2128H55.9722V12.2492Z" fill="white"/>
</svg>
