<svg width="123" height="27" viewBox="0 0 123 27" fill="none" xmlns="http://www.w3.org/2000/svg">
<path d="M58.1959 13.0187V26.0375L59.6539 26.402C60.4349 26.6103 62.726 26.8186 64.7568 26.7665C67.8289 26.7665 68.8182 26.5582 70.2762 25.5167C73.6607 23.2254 74.8063 16.9764 72.7756 12.3418C71.4217 9.26934 68.1413 7.4988 64.6526 8.01955L62.3615 8.332V4.16601V1.90735e-05H60.2787H58.1959V13.0187ZM67.881 12.1335C69.6513 14.4768 70.12 18.4345 68.8703 20.83C67.881 22.7047 66.6313 23.4337 64.2361 23.4337H62.3615V17.7576C62.3615 12.7584 62.4657 12.0293 63.2988 11.821C64.0278 11.6127 67.6727 11.8731 67.881 12.1335Z" fill="white"/>
<path d="M33.6183 1.61428C32.5249 2.23918 32.3687 4.16595 33.3059 5.1033C34.1911 5.98857 36.6905 5.88442 37.055 4.895C38.2005 1.92673 36.2218 0.052032 33.6183 1.61428Z" fill="white"/>
<path d="M4.97973 8.9569C2.42829 10.5712 1.49103 11.9252 1.12654 14.7893C-0.0710713 23.2254 3.83419 27.8601 11.1761 26.7665C13.9358 26.3499 14.1961 25.9854 13.1547 23.9545C12.4778 22.6526 12.1654 22.4443 11.3323 22.913C7.53116 24.9439 4.35489 20.9341 5.34422 15.4663C5.86492 12.7584 7.27081 11.7169 10.2388 11.8731C12.4258 11.9772 12.7902 11.821 13.3109 10.7274C14.092 9.00898 13.0506 8.22785 9.61397 7.96748C7.47909 7.81125 6.48976 8.01955 4.97973 8.9569Z" fill="white"/>
<path d="M19.664 8.17574C13.7801 10.6233 12.5304 20.4133 17.5292 25.4125C18.6226 26.5061 19.3516 26.7144 22.0072 26.7665C25.9645 26.8185 27.6828 25.9853 29.3491 23.1212C31.7964 18.9552 30.6508 11.7689 27.058 9.16516C25.7042 8.12366 21.1741 7.55084 19.664 8.17574ZM25.4959 13.1749C26.1207 13.956 26.4331 15.2579 26.4331 17.0805C26.4331 21.9756 24.2462 24.371 20.9658 23.1212C17.8416 21.8714 17.9978 12.7063 21.1741 11.7689C22.632 11.4044 24.6107 12.0293 25.4959 13.1749Z" fill="white"/>
<path d="M42.5744 8.48818L40.7519 9.11308L40.5957 17.8096L40.4916 26.5582H42.5744H44.6572V19.3198V12.0814L46.1672 11.7168C48.1459 11.3002 50.2808 11.8731 50.9056 13.0187C51.218 13.5394 51.4263 16.8202 51.4263 20.2571V26.5582H53.5091H55.5919V19.6322C55.5919 11.9772 55.2274 10.8316 52.5198 9.00893C50.489 7.65499 45.7507 7.39461 42.5744 8.48818Z" fill="white"/>
<path d="M78.3986 8.43612C76.3678 8.95687 75.9513 9.89422 76.9406 11.4565C77.3051 12.0293 77.8779 12.0814 79.9607 11.6648C82.5121 11.144 85.7925 11.6127 85.7925 12.4459C85.7925 12.7063 85.9487 13.2791 86.1049 13.6957C86.3132 14.2685 85.8446 14.581 84.1263 14.8413C77.253 15.8828 74.9619 17.8096 75.5347 22.0797C76.0554 25.8291 79.8045 27.5997 85.6884 26.8186C90.2705 26.1937 89.9581 26.7665 89.9581 19.2677C89.9581 15.5704 89.7498 11.9772 89.4374 11.2482C88.344 8.22782 83.5535 7.0301 78.3986 8.43612ZM86.3132 20.5175C86.3132 23.5378 85.9487 23.9544 83.1369 23.9544C81.0541 23.9544 78.7631 21.7673 79.492 20.4133C80.2731 18.9032 81.2104 18.3303 83.189 18.07C84.1783 17.9658 85.3239 17.8096 85.6884 17.8096C86.1049 17.7054 86.3132 18.5907 86.3132 20.5175Z" fill="white"/>
<path d="M96.206 8.22782C93.4983 9.47761 92.8735 10.3629 92.8735 12.9666C92.8214 14.9976 93.0817 15.8307 94.0711 16.8722C94.8001 17.6013 95.6853 18.2262 96.1018 18.2262C97.4556 18.2262 100.892 20.4654 100.892 21.3507C100.892 23.1733 96.9349 23.9544 94.1232 22.7046C93.0817 22.288 91.6759 25.5167 92.6652 26.0895C93.8107 26.8185 98.6533 27.131 100.788 26.6623C103.652 25.9854 105.006 24.319 105.058 21.5069C105.058 18.9552 103.34 16.8202 100.84 16.2994C100.007 16.1432 98.7574 15.4662 98.0284 14.7893C96.8829 13.7478 96.7787 13.3832 97.2994 12.4459C97.8201 11.4565 98.1846 11.3523 100.684 11.6648C103.287 11.9772 103.548 11.8731 103.964 10.8316C104.693 9.00894 103.444 8.17574 100.007 7.96744C98.3408 7.91537 96.6225 8.01952 96.206 8.22782Z" fill="white"/>
<path d="M110.787 9.0611C107.714 11.092 106.308 15.258 107.142 19.7885C107.402 21.2987 107.662 22.6526 107.662 22.7568C107.662 22.8609 108.443 23.7462 109.433 24.6836C110.839 26.1417 111.724 26.5062 113.963 26.7666C118.18 27.2352 121.93 26.5583 122.138 25.2564C122.19 24.6836 121.982 23.7462 121.565 23.2255C120.992 22.4443 120.68 22.3402 119.743 22.8609C118.389 23.59 114.848 23.59 113.234 22.8609C112.557 22.5485 111.776 21.6632 111.463 20.83L110.891 19.3719L114.119 18.7991C115.941 18.4867 118.285 18.2263 119.43 18.2263C122.554 18.2263 122.971 17.7576 122.554 14.4248C122.19 11.5086 120.94 9.79015 118.233 8.38413C116.358 7.44678 112.817 7.75923 110.787 9.0611ZM116.879 11.769C118.076 12.0814 118.962 14.4248 118.18 15.2059C117.608 15.7788 110.787 16.4037 110.787 15.8829C110.787 14.6331 112.14 11.9773 112.817 11.8211C114.119 11.4565 115.629 11.4565 116.879 11.769Z" fill="white"/>
<path d="M33.2021 17.4451V26.5582H35.285H37.3678V17.4451V8.33196H35.285H33.2021V17.4451Z" fill="white"/>
</svg>
