<svg width="38" height="38" viewBox="0 0 38 38" fill="none" xmlns="http://www.w3.org/2000/svg">
<path d="M0.646851 7.8222C0.646851 3.88586 3.83789 0.694824 7.77423 0.694824H30.009C33.9453 0.694824 37.1364 3.88586 37.1364 7.8222V30.057C37.1364 33.9933 33.9453 37.1843 30.009 37.1843H7.77423C3.83789 37.1843 0.646851 33.9933 0.646851 30.057V7.8222Z" fill="url(#paint0_linear_5_44)"/>
<path d="M18.8911 9.91895C18.3173 9.91895 17.8516 10.368 17.8516 10.9212V17.9372H10.5758C10.002 17.9372 9.53638 18.3863 9.53638 18.9395C9.53638 19.4928 10.002 19.9418 10.5758 19.9418H17.8516V26.9578C17.8516 27.5111 18.3173 27.9601 18.8911 27.9601C19.4648 27.9601 19.9305 27.5111 19.9305 26.9578V19.9418H27.2063C27.7801 19.9418 28.2457 19.4928 28.2457 18.9395C28.2457 18.3863 27.7801 17.9372 27.2063 17.9372H19.9305V10.9212C19.9305 10.368 19.4648 9.91895 18.8911 9.91895Z" fill="white"/>
<defs>
<linearGradient id="paint0_linear_5_44" x1="37.1364" y1="0.694825" x2="-2.69882" y2="40.7449" gradientUnits="userSpaceOnUse">
<stop stop-color="#CE13FF"/>
<stop offset="1" stop-color="#7000FF"/>
</linearGradient>
</defs>
</svg>
