<svg width="38" height="38" viewBox="0 0 38 38" fill="none" xmlns="http://www.w3.org/2000/svg">
<path d="M0.646851 7.88421C0.646851 3.94787 3.83789 0.756836 7.77423 0.756836H30.009C33.9453 0.756836 37.1364 3.94787 37.1364 7.88421V30.119C37.1364 34.0553 33.9453 37.2464 30.009 37.2464H7.77423C3.83789 37.2464 0.646851 34.0553 0.646851 30.119V7.88421Z" fill="url(#paint0_linear_5_46)"/>
<path d="M18.8911 9.98096C18.3173 9.98096 17.8516 10.43 17.8516 10.9832V17.9993H10.5758C10.002 17.9993 9.53638 18.4483 9.53638 19.0015C9.53638 19.5548 10.002 20.0038 10.5758 20.0038H17.8516V27.0198C17.8516 27.5731 18.3173 28.0221 18.8911 28.0221C19.4648 28.0221 19.9305 27.5731 19.9305 27.0198V20.0038H27.2063C27.7801 20.0038 28.2457 19.5548 28.2457 19.0015C28.2457 18.4483 27.7801 17.9993 27.2063 17.9993H19.9305V10.9832C19.9305 10.43 19.4648 9.98096 18.8911 9.98096Z" fill="white"/>
<defs>
<linearGradient id="paint0_linear_5_46" x1="37.1364" y1="0.756837" x2="-2.69882" y2="40.8069" gradientUnits="userSpaceOnUse">
<stop stop-color="#CE13FF"/>
<stop offset="1" stop-color="#7000FF"/>
</linearGradient>
</defs>
</svg>
