<svg width="38" height="38" viewBox="0 0 38 38" fill="none" xmlns="http://www.w3.org/2000/svg">
<path d="M0.646851 7.94623C0.646851 4.00989 3.83789 0.818848 7.77423 0.818848H30.009C33.9453 0.818848 37.1364 4.00988 37.1364 7.94622V30.181C37.1364 34.1173 33.9453 37.3084 30.009 37.3084H7.77423C3.83789 37.3084 0.646851 34.1173 0.646851 30.181V7.94623Z" fill="url(#paint0_linear_5_48)"/>
<path d="M18.8911 10.043C18.3173 10.043 17.8516 10.492 17.8516 11.0453V18.0613H10.5758C10.002 18.0613 9.53638 18.5103 9.53638 19.0636C9.53638 19.6168 10.002 20.0658 10.5758 20.0658H17.8516V27.0819C17.8516 27.6351 18.3173 28.0841 18.8911 28.0841C19.4648 28.0841 19.9305 27.6351 19.9305 27.0819V20.0658H27.2063C27.7801 20.0658 28.2457 19.6168 28.2457 19.0636C28.2457 18.5103 27.7801 18.0613 27.2063 18.0613H19.9305V11.0453C19.9305 10.492 19.4648 10.043 18.8911 10.043Z" fill="white"/>
<defs>
<linearGradient id="paint0_linear_5_48" x1="37.1364" y1="0.818849" x2="-2.69882" y2="40.8689" gradientUnits="userSpaceOnUse">
<stop stop-color="#CE13FF"/>
<stop offset="1" stop-color="#7000FF"/>
</linearGradient>
</defs>
</svg>
