<svg width="38" height="38" viewBox="0 0 38 38" fill="none" xmlns="http://www.w3.org/2000/svg">
<path d="M0.646851 7.75995C0.646851 3.82361 3.83789 0.632568 7.77423 0.632568H30.009C33.9453 0.632568 37.1364 3.8236 37.1364 7.75994V29.9947C37.1364 33.931 33.9453 37.1221 30.009 37.1221H7.77423C3.83789 37.1221 0.646851 33.9311 0.646851 29.9947V7.75995Z" fill="url(#paint0_linear_5_42)"/>
<path d="M18.8911 9.85669C18.3173 9.85669 17.8516 10.3057 17.8516 10.859V17.875H10.5758C10.002 17.875 9.53638 18.324 9.53638 18.8773C9.53638 19.4305 10.002 19.8796 10.5758 19.8796H17.8516V26.8956C17.8516 27.4488 18.3173 27.8979 18.8911 27.8979C19.4648 27.8979 19.9305 27.4488 19.9305 26.8956V19.8796H27.2063C27.7801 19.8796 28.2457 19.4305 28.2457 18.8773C28.2457 18.324 27.7801 17.875 27.2063 17.875H19.9305V10.859C19.9305 10.3057 19.4648 9.85669 18.8911 9.85669Z" fill="white"/>
<defs>
<linearGradient id="paint0_linear_5_42" x1="37.1364" y1="0.632569" x2="-2.69882" y2="40.6826" gradientUnits="userSpaceOnUse">
<stop stop-color="#CE13FF"/>
<stop offset="1" stop-color="#7000FF"/>
</linearGradient>
</defs>
</svg>
