<svg width="2073" height="2134" viewBox="0 0 2073 2134" fill="none" xmlns="http://www.w3.org/2000/svg">
<g opacity="0.98" filter="url(#filter0_f_2_220)">
<ellipse cx="236.227" cy="266.255" rx="236.227" ry="266.255" transform="matrix(-1 0 0 1 1273 800.531)" fill="url(#paint0_linear_2_220)" fill-opacity="0.7"/>
<ellipse cx="236.227" cy="266.255" rx="236.227" ry="266.255" transform="matrix(-1 0 0 1 1273 800.531)" fill="#952EE1"/>
<path d="M801.295 1066.79C801.295 1213.51 906.804 1332.29 1036.77 1332.29C1166.74 1332.29 1272.25 1213.51 1272.25 1066.79C1272.25 920.065 1166.74 801.281 1036.77 801.281C906.804 801.281 801.295 920.065 801.295 1066.79Z" stroke="url(#paint1_linear_2_220)" stroke-width="1.5"/>
</g>
<path d="M691.733 1001.34C691.733 1170.96 813.707 1308.3 963.986 1308.3C1114.27 1308.3 1236.24 1170.96 1236.24 1001.34C1236.24 831.729 1114.27 694.387 963.986 694.387C813.707 694.387 691.733 831.729 691.733 1001.34Z" stroke="white" stroke-opacity="0.11" stroke-width="1.5"/>
<path d="M926.612 1169.57C926.612 1250.44 984.764 1315.85 1056.32 1315.85C1127.87 1315.85 1186.02 1250.44 1186.02 1169.57C1186.02 1088.69 1127.87 1023.28 1056.32 1023.28C984.764 1023.28 926.612 1088.69 926.612 1169.57Z" stroke="white" stroke-opacity="0.11" stroke-width="1.5"/>
<rect y="1.12204" width="12.4822" height="12.4822" rx="4.25" transform="matrix(-0.663667 0.748028 0.663667 0.748028 1124.5 744.283)" fill="url(#paint2_linear_2_220)" stroke="url(#paint3_linear_2_220)" stroke-width="1.5"/>
<rect y="1.12204" width="12.4822" height="12.4822" rx="4.25" transform="matrix(-0.663667 0.748028 0.663667 0.748028 1042.23 1306.17)" fill="url(#paint4_linear_2_220)" stroke="url(#paint5_linear_2_220)" stroke-width="1.5"/>
<rect x="0.353601" y="1.05202" width="12.9785" height="11.9676" rx="4.25" transform="matrix(-0.401923 0.915673 0.873391 0.48702 712.298 862.347)" fill="url(#paint6_linear_2_220)" stroke="url(#paint7_linear_2_220)" stroke-width="1.5"/>
<rect y="1.12204" width="12.4822" height="12.4822" rx="4.25" transform="matrix(-0.663667 0.748028 0.663667 0.748028 1166.2 1081.28)" fill="url(#paint8_linear_2_220)" stroke="url(#paint9_linear_2_220)" stroke-width="1.5"/>
<defs>
<filter id="filter0_f_2_220" x="0.545044" y="0.53125" width="2072.45" height="2132.51" filterUnits="userSpaceOnUse" color-interpolation-filters="sRGB">
<feFlood flood-opacity="0" result="BackgroundImageFix"/>
<feBlend mode="normal" in="SourceGraphic" in2="BackgroundImageFix" result="shape"/>
<feGaussianBlur stdDeviation="400" result="effect1_foregroundBlur_2_220"/>
</filter>
<linearGradient id="paint0_linear_2_220" x1="472.455" y1="1.58304e-05" x2="-105.114" y2="515.195" gradientUnits="userSpaceOnUse">
<stop stop-color="#FF007A"/>
<stop offset="1" stop-color="#7000FF"/>
</linearGradient>
<linearGradient id="paint1_linear_2_220" x1="969.68" y1="627.813" x2="969.68" y2="1478.91" gradientUnits="userSpaceOnUse">
<stop stop-color="white" stop-opacity="0.72"/>
<stop offset="1" stop-color="white" stop-opacity="0"/>
</linearGradient>
<linearGradient id="paint2_linear_2_220" x1="13.9822" y1="4.15661e-07" x2="-1.28201" y2="15.3465" gradientUnits="userSpaceOnUse">
<stop stop-color="#CE13FF"/>
<stop offset="1" stop-color="#7000FF"/>
</linearGradient>
<linearGradient id="paint3_linear_2_220" x1="8.97667" y1="-4.53508" x2="8.97667" y2="17.8122" gradientUnits="userSpaceOnUse">
<stop stop-color="white" stop-opacity="0.72"/>
<stop offset="1" stop-color="white" stop-opacity="0"/>
</linearGradient>
<linearGradient id="paint4_linear_2_220" x1="13.9822" y1="4.15661e-07" x2="-1.28201" y2="15.3465" gradientUnits="userSpaceOnUse">
<stop stop-color="#CE13FF"/>
<stop offset="1" stop-color="#7000FF"/>
</linearGradient>
<linearGradient id="paint5_linear_2_220" x1="8.97667" y1="-4.53508" x2="8.97667" y2="17.8122" gradientUnits="userSpaceOnUse">
<stop stop-color="white" stop-opacity="0.72"/>
<stop offset="1" stop-color="white" stop-opacity="0"/>
</linearGradient>
<linearGradient id="paint6_linear_2_220" x1="14.4786" y1="4.00362e-07" x2="-0.179704" y2="15.8436" gradientUnits="userSpaceOnUse">
<stop stop-color="#CE13FF"/>
<stop offset="1" stop-color="#7000FF"/>
</linearGradient>
<linearGradient id="paint7_linear_2_220" x1="9.29533" y1="-4.36816" x2="9.29533" y2="17.1566" gradientUnits="userSpaceOnUse">
<stop stop-color="white" stop-opacity="0.72"/>
<stop offset="1" stop-color="white" stop-opacity="0"/>
</linearGradient>
<linearGradient id="paint8_linear_2_220" x1="13.9822" y1="4.15661e-07" x2="-1.28201" y2="15.3465" gradientUnits="userSpaceOnUse">
<stop stop-color="#CE13FF"/>
<stop offset="1" stop-color="#7000FF"/>
</linearGradient>
<linearGradient id="paint9_linear_2_220" x1="8.97667" y1="-4.53508" x2="8.97667" y2="17.8122" gradientUnits="userSpaceOnUse">
<stop stop-color="white" stop-opacity="0.72"/>
<stop offset="1" stop-color="white" stop-opacity="0"/>
</linearGradient>
</defs>
</svg>
