<svg width="2133" height="2134" viewBox="0 0 2133 2134" fill="none" xmlns="http://www.w3.org/2000/svg">
<g opacity="0.98" filter="url(#filter0_f_2_7)">
<circle cx="266.255" cy="266.255" r="266.255" transform="matrix(-1 0 0 1 1333 800.895)" fill="url(#paint0_linear_2_7)" fill-opacity="0.7"/>
<circle cx="266.255" cy="266.255" r="266.255" transform="matrix(-1 0 0 1 1333 800.895)" fill="#952EE1"/>
<circle cx="266.255" cy="266.255" r="265.505" transform="matrix(-1 0 0 1 1333 800.895)" stroke="url(#paint1_linear_2_7)" stroke-width="1.5"/>
</g>
<circle cx="307.706" cy="307.706" r="306.956" transform="matrix(-1 0 0 1 1292.41 694)" stroke="white" stroke-opacity="0.11" stroke-width="1.5"/>
<circle cx="147.037" cy="147.037" r="146.287" transform="matrix(-1 0 0 1 1235.81 1022.89)" stroke="white" stroke-opacity="0.11" stroke-width="1.5"/>
<rect y="1.06066" width="13.2914" height="13.2914" rx="4.25" transform="matrix(-0.707107 0.707107 0.707107 0.707107 1165.71 744.674)" fill="url(#paint2_linear_2_7)" stroke="url(#paint3_linear_2_7)" stroke-width="1.5"/>
<rect y="1.06066" width="13.2914" height="13.2914" rx="4.25" transform="matrix(-0.707107 0.707107 0.707107 0.707107 1072.98 1306.56)" fill="url(#paint4_linear_2_7)" stroke="url(#paint5_linear_2_7)" stroke-width="1.5"/>
<rect x="0.339657" y="1.00481" width="13.2914" height="13.2914" rx="4.25" transform="matrix(-0.443432 0.896308 0.896308 0.443432 701.09 862.749)" fill="url(#paint6_linear_2_7)" stroke="url(#paint7_linear_2_7)" stroke-width="1.5"/>
<rect y="1.06066" width="13.2914" height="13.2914" rx="4.25" transform="matrix(-0.707107 0.707107 0.707107 0.707107 1212.71 1081.67)" fill="url(#paint8_linear_2_7)" stroke="url(#paint9_linear_2_7)" stroke-width="1.5"/>
<defs>
<filter id="filter0_f_2_7" x="0.488647" y="0.894531" width="2132.51" height="2132.51" filterUnits="userSpaceOnUse" color-interpolation-filters="sRGB">
<feFlood flood-opacity="0" result="BackgroundImageFix"/>
<feBlend mode="normal" in="SourceGraphic" in2="BackgroundImageFix" result="shape"/>
<feGaussianBlur stdDeviation="400" result="effect1_foregroundBlur_2_7"/>
</filter>
<linearGradient id="paint0_linear_2_7" x1="532.511" y1="1.58304e-05" x2="-48.8251" y2="584.471" gradientUnits="userSpaceOnUse">
<stop stop-color="#FF007A"/>
<stop offset="1" stop-color="#7000FF"/>
</linearGradient>
<linearGradient id="paint1_linear_2_7" x1="341.876" y1="-172.718" x2="341.876" y2="678.375" gradientUnits="userSpaceOnUse">
<stop stop-color="white" stop-opacity="0.72"/>
<stop offset="1" stop-color="white" stop-opacity="0"/>
</linearGradient>
<linearGradient id="paint2_linear_2_7" x1="14.7914" y1="4.39716e-07" x2="-1.3562" y2="16.2347" gradientUnits="userSpaceOnUse">
<stop stop-color="#CE13FF"/>
<stop offset="1" stop-color="#7000FF"/>
</linearGradient>
<linearGradient id="paint3_linear_2_7" x1="9.49617" y1="-4.79754" x2="9.49617" y2="18.843" gradientUnits="userSpaceOnUse">
<stop stop-color="white" stop-opacity="0.72"/>
<stop offset="1" stop-color="white" stop-opacity="0"/>
</linearGradient>
<linearGradient id="paint4_linear_2_7" x1="14.7914" y1="4.39716e-07" x2="-1.3562" y2="16.2347" gradientUnits="userSpaceOnUse">
<stop stop-color="#CE13FF"/>
<stop offset="1" stop-color="#7000FF"/>
</linearGradient>
<linearGradient id="paint5_linear_2_7" x1="9.49617" y1="-4.79754" x2="9.49617" y2="18.843" gradientUnits="userSpaceOnUse">
<stop stop-color="white" stop-opacity="0.72"/>
<stop offset="1" stop-color="white" stop-opacity="0"/>
</linearGradient>
<linearGradient id="paint6_linear_2_7" x1="14.7914" y1="4.39716e-07" x2="-1.3562" y2="16.2347" gradientUnits="userSpaceOnUse">
<stop stop-color="#CE13FF"/>
<stop offset="1" stop-color="#7000FF"/>
</linearGradient>
<linearGradient id="paint7_linear_2_7" x1="9.49617" y1="-4.79754" x2="9.49617" y2="18.843" gradientUnits="userSpaceOnUse">
<stop stop-color="white" stop-opacity="0.72"/>
<stop offset="1" stop-color="white" stop-opacity="0"/>
</linearGradient>
<linearGradient id="paint8_linear_2_7" x1="14.7914" y1="4.39716e-07" x2="-1.3562" y2="16.2347" gradientUnits="userSpaceOnUse">
<stop stop-color="#CE13FF"/>
<stop offset="1" stop-color="#7000FF"/>
</linearGradient>
<linearGradient id="paint9_linear_2_7" x1="9.49617" y1="-4.79754" x2="9.49617" y2="18.843" gradientUnits="userSpaceOnUse">
<stop stop-color="white" stop-opacity="0.72"/>
<stop offset="1" stop-color="white" stop-opacity="0"/>
</linearGradient>
</defs>
</svg>
