<svg width="505" height="510" viewBox="0 0 505 510" fill="none" xmlns="http://www.w3.org/2000/svg">
<path d="M29.3984 4.29565L4.57724 29.3752L4 477.891L35.748 505.887H473.293L501 477.891V34.6244L470.984 4.29565H368.813L338.797 34.6244H166.78L136.764 4.29565H29.3984Z" fill="url(#paint0_linear_2_429)" fill-opacity="0.2"/>
<rect x="43.0245" y="2" width="10.3303" height="53.9469" rx="5.16513" fill="url(#paint1_linear_2_429)"/>
<rect x="57.9464" y="2" width="10.3303" height="53.9469" rx="5.16513" fill="url(#paint2_linear_2_429)"/>
<rect x="72.8675" y="2" width="10.3303" height="53.9469" rx="5.16513" fill="url(#paint3_linear_2_429)"/>
<rect x="87.7892" y="2" width="10.3303" height="53.9469" rx="5.16513" fill="url(#paint4_linear_2_429)"/>
<rect x="102.71" y="2" width="10.3303" height="53.9469" rx="5.16513" fill="url(#paint5_linear_2_429)"/>
<rect x="388.514" y="2" width="10.3303" height="53.9469" rx="5.16513" fill="url(#paint6_linear_2_429)"/>
<rect x="403.436" y="2" width="10.3303" height="53.9469" rx="5.16513" fill="url(#paint7_linear_2_429)"/>
<rect x="418.356" y="2" width="10.3303" height="53.9469" rx="5.16513" fill="url(#paint8_linear_2_429)"/>
<rect x="433.278" y="2" width="10.3303" height="53.9469" rx="5.16513" fill="url(#paint9_linear_2_429)"/>
<rect x="448.199" y="2" width="10.3303" height="53.9469" rx="5.16513" fill="url(#paint10_linear_2_429)"/>
<path d="M29.3984 4.29565L4.57724 29.3752L4 477.891L35.748 505.887H473.293L501 477.891V34.6244L470.984 4.29565H368.813L338.797 34.6244H166.78L136.764 4.29565H29.3984Z" stroke="url(#paint11_linear_2_429)" stroke-width="7"/>
<rect x="46.4688" y="132.85" width="215.788" height="5.73902" rx="2.86951" transform="rotate(90 46.4688 132.85)" fill="url(#paint12_linear_2_429)"/>
<circle cx="43.5999" cy="132.276" r="4.01732" transform="rotate(90 43.5999 132.276)" fill="url(#paint13_linear_2_429)"/>
<rect x="465.417" y="132.85" width="215.788" height="5.73902" rx="2.86951" transform="rotate(90 465.417 132.85)" fill="url(#paint14_linear_2_429)"/>
<defs>
<linearGradient id="paint0_linear_2_429" x1="501.001" y1="4.29567" x2="-46.5853" y2="549.795" gradientUnits="userSpaceOnUse">
<stop stop-color="#CE13FF"/>
<stop offset="1" stop-color="#7000FF"/>
</linearGradient>
<linearGradient id="paint1_linear_2_429" x1="53.3548" y1="2" x2="31.4885" y2="6.20975" gradientUnits="userSpaceOnUse">
<stop stop-color="#CE13FF"/>
<stop offset="1" stop-color="#7000FF"/>
</linearGradient>
<linearGradient id="paint2_linear_2_429" x1="68.2767" y1="2" x2="46.4103" y2="6.20975" gradientUnits="userSpaceOnUse">
<stop stop-color="#CE13FF"/>
<stop offset="1" stop-color="#7000FF"/>
</linearGradient>
<linearGradient id="paint3_linear_2_429" x1="83.1977" y1="2" x2="61.3314" y2="6.20975" gradientUnits="userSpaceOnUse">
<stop stop-color="#CE13FF"/>
<stop offset="1" stop-color="#7000FF"/>
</linearGradient>
<linearGradient id="paint4_linear_2_429" x1="98.1195" y1="2" x2="76.2531" y2="6.20975" gradientUnits="userSpaceOnUse">
<stop stop-color="#CE13FF"/>
<stop offset="1" stop-color="#7000FF"/>
</linearGradient>
<linearGradient id="paint5_linear_2_429" x1="113.041" y1="2" x2="91.1742" y2="6.20975" gradientUnits="userSpaceOnUse">
<stop stop-color="#CE13FF"/>
<stop offset="1" stop-color="#7000FF"/>
</linearGradient>
<linearGradient id="paint6_linear_2_429" x1="398.844" y1="2" x2="376.978" y2="6.20975" gradientUnits="userSpaceOnUse">
<stop stop-color="#CE13FF"/>
<stop offset="1" stop-color="#7000FF"/>
</linearGradient>
<linearGradient id="paint7_linear_2_429" x1="413.766" y1="2" x2="391.899" y2="6.20975" gradientUnits="userSpaceOnUse">
<stop stop-color="#CE13FF"/>
<stop offset="1" stop-color="#7000FF"/>
</linearGradient>
<linearGradient id="paint8_linear_2_429" x1="428.687" y1="2" x2="406.82" y2="6.20975" gradientUnits="userSpaceOnUse">
<stop stop-color="#CE13FF"/>
<stop offset="1" stop-color="#7000FF"/>
</linearGradient>
<linearGradient id="paint9_linear_2_429" x1="443.609" y1="2" x2="421.742" y2="6.20975" gradientUnits="userSpaceOnUse">
<stop stop-color="#CE13FF"/>
<stop offset="1" stop-color="#7000FF"/>
</linearGradient>
<linearGradient id="paint10_linear_2_429" x1="458.53" y1="2" x2="436.663" y2="6.20975" gradientUnits="userSpaceOnUse">
<stop stop-color="#CE13FF"/>
<stop offset="1" stop-color="#7000FF"/>
</linearGradient>
<linearGradient id="paint11_linear_2_429" x1="501.001" y1="4.29567" x2="-46.5853" y2="549.795" gradientUnits="userSpaceOnUse">
<stop stop-color="#CE13FF"/>
<stop offset="1" stop-color="#7000FF"/>
</linearGradient>
<linearGradient id="paint12_linear_2_429" x1="262.257" y1="132.85" x2="261.925" y2="145.372" gradientUnits="userSpaceOnUse">
<stop stop-color="#CE13FF"/>
<stop offset="1" stop-color="#7000FF"/>
</linearGradient>
<linearGradient id="paint13_linear_2_429" x1="47.6173" y1="128.259" x2="38.8459" y2="137.077" gradientUnits="userSpaceOnUse">
<stop stop-color="#CE13FF"/>
<stop offset="1" stop-color="#7000FF"/>
</linearGradient>
<linearGradient id="paint14_linear_2_429" x1="681.205" y1="132.85" x2="680.874" y2="145.372" gradientUnits="userSpaceOnUse">
<stop stop-color="#CE13FF"/>
<stop offset="1" stop-color="#7000FF"/>
</linearGradient>
</defs>
</svg>
