<svg width="38" height="37" viewBox="0 0 38 37" fill="none" xmlns="http://www.w3.org/2000/svg">
<path d="M26.5857 21.4446L30.774 25.6317L19.4392 36.9676L8.10589 25.6333L12.2942 21.4446L19.4407 28.6287L26.5857 21.4446ZM33.7338 14.2974L37.956 18.4846L33.7707 22.6717L29.5824 18.4846L33.7338 14.2974ZM19.4407 14.2974L23.6275 18.4476L19.4392 22.6363L15.2524 18.4846L19.4392 14.299L19.4407 14.2974ZM5.14616 14.2974L9.29903 18.4846L5.14925 22.6348L0.959381 18.4846L5.14616 14.2974ZM19.4423 0L30.7756 11.3004L26.5872 15.486L19.4407 8.33887L12.2958 15.523L8.10743 11.3359L19.4407 0.00154167L19.4423 0Z" fill="white"/>
</svg>
